<svg xmlns="http://www.w3.org/2000/svg" viewBox="0 0 512 512" width="512" height="512">
  <defs>
    <linearGradient id="bg-grad" x1="0%" y1="0%" x2="100%" y2="100%">
      <stop offset="0%" style="stop-color:#3B82F6;stop-opacity:1" />
      <stop offset="100%" style="stop-color:#8B5CF6;stop-opacity:1" />
    </linearGradient>
    <linearGradient id="feather-grad" x1="0%" y1="0%" x2="100%" y2="100%">
      <stop offset="0%" style="stop-color:#FFFFFF;stop-opacity:1" />
      <stop offset="100%" style="stop-color:#E0E7FF;stop-opacity:1" />
    </linearGradient>
    <filter id="shadow" x="-10%" y="-10%" width="120%" height="120%">
      <feDropShadow dx="0" dy="10" stdDeviation="15" flood-color="#000000" flood-opacity="0.3"/>
    </filter>
  </defs>
  <rect width="512" height="512" rx="128" fill="url(#bg-grad)" />
  <!-- A stylized feather pen and a checkmark representing grammar and writing -->
  <g filter="url(#shadow)">
    <path d="M366.5 132.5c-19.3-19.3-50.8-19.3-70.1 0L170.8 258.1c-22 22-35.3 50.8-38.3 81.8l-5.6 57.5c-1.2 12.6 8.8 23.4 21.4 22.8l58.3-2.9c31.6-1.6 61.1-13.8 84.1-34.5l133.5-120.3c21.4-19.3 22.9-52.4 3.4-73.6l-61.1-56.4z" fill="url(#feather-grad)" opacity="0.95"/>
    <path d="M192 384c16.3 15.5 35.8 26.5 56.8 31.9 14.5-20.5 32.5-38.5 52.8-52.8-14.8-14.8-29.2-30.8-42.5-47.5L192 384z" fill="#6D28D9" opacity="0.5"/>
    <!-- Checkmark Path -->
    <path d="M180 270l50 50l120-120" fill="none" stroke="#1E3A8A" stroke-width="36" stroke-linecap="round" stroke-linejoin="round" />
  </g>
</svg>